<svg width="84" height="69" viewBox="0 0 84 69" fill="none" xmlns="http://www.w3.org/2000/svg">
<line x1="51.823" y1="2.50005" x2="14.868" y2="66.5" stroke="#402597" stroke-width="2"/>
<line y1="-1" x2="74.921" y2="-1" transform="matrix(-0.497299 0.867579 -0.588886 -0.808216 72.5078 2)" stroke="#402597" stroke-width="2"/>
<line y1="-1" x2="49.6621" y2="-1" transform="matrix(-0.788849 0.614588 -0.309421 -0.950925 72.418 2)" stroke="#402597" stroke-width="2"/>
<line x1="51.2322" y1="2.96141" x2="23.2771" y2="10.9614" stroke="#402597" stroke-width="2"/>
<line y1="-1" x2="22.819" y2="-1" transform="matrix(0.440207 0.897896 -0.648482 0.76123 23.1953 12.0352)" stroke="#402597" stroke-width="2"/>
<line y1="-1" x2="31.7058" y2="-1" transform="matrix(0.270739 0.962653 -0.829467 0.558556 72.418 2)" stroke="#402597" stroke-width="2"/>
<line x1="56.8242" y1="30.3394" x2="69.9374" y2="65.6519" stroke="#402597" stroke-width="2"/>
<line x1="82.0865" y1="31.3246" x2="69.9478" y2="66.6985" stroke="#402597" stroke-width="2"/>
<line x1="15.0312" y1="65.7522" x2="23.5954" y2="32.2716" stroke="#402597" stroke-width="2"/>
<line y1="-1" x2="30.2765" y2="-1" transform="matrix(-0.434328 -0.900755 0.654714 -0.755876 24.5664 32.5234)" stroke="#402597" stroke-width="2"/>
<line x1="10.9311" y1="7.36484" x2="0.930254" y2="32.8865" stroke="#402597" stroke-width="2"/>
<line y1="-1" x2="36.0514" y2="-1" transform="matrix(0.379953 0.925006 -0.712966 0.701199 0 32.5234)" stroke="#402597" stroke-width="2"/>
</svg>
